<svg width="203" height="36" viewBox="0 0 203 36" fill="none" xmlns="http://www.w3.org/2000/svg">
<path d="M13.1561 13.9507C13.1014 13.2677 12.8453 12.7349 12.3876 12.3524C11.9368 11.9698 11.2504 11.7786 10.3282 11.7786C9.74079 11.7786 9.25923 11.8503 8.88355 11.9938C8.5147 12.1304 8.24147 12.3182 8.06388 12.5573C7.88628 12.7964 7.79407 13.0696 7.78724 13.377C7.77358 13.6297 7.81798 13.8585 7.92044 14.0634C8.02973 14.2615 8.20049 14.4425 8.43273 14.6065C8.66497 14.7636 8.9621 14.907 9.32413 15.0368C9.68615 15.1666 10.1165 15.2827 10.6151 15.3851L12.3364 15.754C13.4976 15.9999 14.4915 16.3244 15.318 16.7274C16.1445 17.1304 16.8207 17.6051 17.3467 18.1515C17.8726 18.6912 18.2586 19.2991 18.5045 19.9753C18.7572 20.6515 18.887 21.3892 18.8938 22.1884C18.887 23.5682 18.542 24.7362 17.859 25.6925C17.1759 26.6488 16.1991 27.3763 14.9286 27.8749C13.665 28.3735 12.1452 28.6229 10.3692 28.6229C8.54544 28.6229 6.95391 28.353 5.59462 27.8134C4.24216 27.2738 3.19024 26.4439 2.43888 25.3237C1.69434 24.1966 1.31866 22.7554 1.31183 20.9999H6.72167C6.75582 21.642 6.91634 22.1816 7.20322 22.6188C7.49011 23.0559 7.89311 23.3872 8.41224 23.6126C8.9382 23.838 9.5632 23.9507 10.2872 23.9507C10.8952 23.9507 11.404 23.8756 11.8139 23.7253C12.2237 23.575 12.5345 23.3667 12.7463 23.1003C12.958 22.8339 13.0673 22.53 13.0741 22.1884C13.0673 21.8674 12.9614 21.5873 12.7565 21.3483C12.5584 21.1024 12.2305 20.8838 11.7729 20.6925C11.3152 20.4944 10.6971 20.31 9.91839 20.1392L7.82822 19.6884C5.9703 19.2854 4.50514 18.6126 3.43273 17.67C2.36716 16.7205 1.83779 15.4261 1.84462 13.7868C1.83779 12.4548 2.19298 11.2902 2.91019 10.2929C3.63423 9.28884 4.63492 8.50673 5.91224 7.94662C7.19639 7.38651 8.66839 7.10646 10.3282 7.10646C12.0222 7.10646 13.4874 7.38993 14.7237 7.95687C15.9601 8.52381 16.9129 9.32299 17.5823 10.3544C18.2586 11.379 18.6001 12.5778 18.6069 13.9507H13.1561ZM30.7297 34.2786V25.795H30.6477C30.4291 26.3278 30.1149 26.8059 29.7051 27.2294C29.3021 27.6461 28.8103 27.9774 28.2297 28.2233C27.6559 28.4623 27.0002 28.5819 26.2624 28.5819C25.1422 28.5819 24.1108 28.2882 23.1682 27.7007C22.2324 27.1133 21.481 26.2219 20.9141 25.0265C20.354 23.8312 20.0739 22.325 20.0739 20.5081C20.0739 18.6092 20.3676 17.0655 20.9551 15.877C21.5493 14.6884 22.3144 13.8175 23.2502 13.2642C24.1928 12.711 25.1832 12.4343 26.2215 12.4343C27.0002 12.4343 27.6832 12.5709 28.2706 12.8442C28.8581 13.1106 29.3499 13.4692 29.7461 13.92C30.1422 14.364 30.4428 14.8524 30.6477 15.3851H30.7706V12.6392H36.3854V34.2786H30.7297ZM28.3526 24.2376C28.8717 24.2376 29.3157 24.0873 29.6846 23.7868C30.0603 23.4794 30.3471 23.0491 30.5452 22.4958C30.7502 21.9357 30.8526 21.2731 30.8526 20.5081C30.8526 19.7294 30.7502 19.0634 30.5452 18.5101C30.3471 17.95 30.0603 17.5231 29.6846 17.2294C29.3157 16.9289 28.8717 16.7786 28.3526 16.7786C27.8335 16.7786 27.3895 16.9289 27.0206 17.2294C26.6586 17.5231 26.3786 17.95 26.1805 18.5101C25.9892 19.0634 25.8936 19.7294 25.8936 20.5081C25.8936 21.2868 25.9892 21.9562 26.1805 22.5163C26.3786 23.0696 26.6586 23.4965 27.0206 23.797C27.3895 24.0908 27.8335 24.2376 28.3526 24.2376ZM48.8744 21.4917V12.6392H54.5302V28.377H49.1613V25.3851H48.9974C48.6559 26.3892 48.0582 27.1748 47.2044 27.7417C46.3505 28.3018 45.3362 28.5819 44.1613 28.5819C43.0616 28.5819 42.0985 28.3291 41.272 27.8237C40.4523 27.3182 39.8136 26.6215 39.356 25.7335C38.9052 24.8455 38.6763 23.8278 38.6695 22.6802V12.6392H44.3253V21.4917C44.3321 22.2704 44.5302 22.8817 44.9195 23.3257C45.3157 23.7697 45.869 23.9917 46.5794 23.9917C47.0507 23.9917 47.4571 23.8927 47.7986 23.6946C48.147 23.4897 48.4134 23.2028 48.5978 22.8339C48.7891 22.4582 48.8813 22.0108 48.8744 21.4917ZM61.2149 28.6229C60.2108 28.6229 59.3228 28.4589 58.551 28.1311C57.7859 27.7964 57.1849 27.2909 56.7477 26.6147C56.3105 25.9384 56.092 25.0778 56.092 24.0327C56.092 23.172 56.2388 22.4377 56.5325 21.8298C56.8262 21.2151 57.2361 20.713 57.762 20.3237C58.288 19.9343 58.8993 19.6372 59.5961 19.4323C60.2996 19.2274 61.0578 19.0942 61.8706 19.0327C62.7518 18.9644 63.4588 18.8824 63.9915 18.7868C64.5312 18.6843 64.9205 18.5443 65.1596 18.3667C65.3987 18.1823 65.5182 17.9398 65.5182 17.6392V17.5983C65.5182 17.1884 65.3611 16.8742 65.0469 16.6556C64.7327 16.4371 64.3297 16.3278 63.8379 16.3278C63.2982 16.3278 62.8577 16.4473 62.5161 16.6864C62.1814 16.9186 61.9799 17.2772 61.9116 17.7622H56.7067C56.775 16.8059 57.079 15.9248 57.6186 15.1188C58.165 14.3059 58.9608 13.657 60.0059 13.172C61.051 12.6802 62.3556 12.4343 63.9198 12.4343C65.0469 12.4343 66.0578 12.5675 66.9526 12.8339C67.8474 13.0935 68.609 13.4589 69.2375 13.9302C69.8659 14.3947 70.344 14.9412 70.6719 15.5696C71.0066 16.1912 71.1739 16.8674 71.1739 17.5983V28.377H65.887V26.1638H65.7641C65.4499 26.7513 65.0674 27.226 64.6165 27.588C64.1726 27.95 63.6637 28.213 63.0899 28.377C62.523 28.5409 61.898 28.6229 61.2149 28.6229ZM63.0592 25.0573C63.4895 25.0573 63.8925 24.9685 64.2682 24.7909C64.6507 24.6133 64.9615 24.3571 65.2006 24.0224C65.4396 23.6877 65.5592 23.2813 65.5592 22.8032V21.4917C65.4089 21.5532 65.2484 21.6112 65.0776 21.6659C64.9137 21.7205 64.7361 21.7718 64.5448 21.8196C64.3604 21.8674 64.1623 21.9118 63.9506 21.9528C63.7456 21.9938 63.5305 22.0313 63.3051 22.0655C62.8679 22.1338 62.5093 22.2465 62.2293 22.4036C61.956 22.5539 61.7511 22.7417 61.6145 22.9671C61.4847 23.1857 61.4198 23.4316 61.4198 23.7048C61.4198 24.142 61.5735 24.4767 61.8809 24.7089C62.1883 24.9412 62.581 25.0573 63.0592 25.0573ZM87.6845 17.7622H82.4796C82.4522 17.4412 82.3395 17.1645 82.1414 16.9323C81.9434 16.7 81.6872 16.5224 81.373 16.3995C81.0656 16.2697 80.7241 16.2048 80.3484 16.2048C79.8634 16.2048 79.4468 16.2936 79.0984 16.4712C78.7501 16.6488 78.5793 16.9015 78.5861 17.2294C78.5793 17.4617 78.6783 17.6768 78.8833 17.8749C79.095 18.073 79.5014 18.2267 80.1025 18.336L83.2992 18.9097C84.9113 19.2035 86.11 19.6987 86.8955 20.3954C87.6879 21.0853 88.0875 22.0108 88.0943 23.172C88.0875 24.2923 87.7528 25.2656 87.0902 26.0921C86.4345 26.9118 85.5363 27.547 84.3955 27.9979C83.2617 28.4418 81.9673 28.6638 80.5123 28.6638C78.108 28.6638 76.2261 28.172 74.8669 27.1884C73.5144 26.2048 72.7596 24.907 72.6025 23.295H78.2173C78.2924 23.7936 78.5383 24.1795 78.955 24.4528C79.3785 24.7192 79.9113 24.8524 80.5533 24.8524C81.0725 24.8524 81.4994 24.7636 81.8341 24.586C82.1756 24.4084 82.3498 24.1556 82.3566 23.8278C82.3498 23.5272 82.1995 23.2882 81.9058 23.1106C81.6189 22.933 81.1681 22.7895 80.5533 22.6802L77.7664 22.1884C76.1613 21.9084 74.9591 21.3756 74.1599 20.5901C73.3607 19.8045 72.9645 18.7936 72.9714 17.5573C72.9645 16.4644 73.2514 15.5388 73.832 14.7806C74.4195 14.0156 75.2562 13.435 76.3423 13.0388C77.4352 12.6358 78.7296 12.4343 80.2255 12.4343C82.5001 12.4343 84.2931 12.9056 85.6046 13.8483C86.9229 14.7909 87.6162 16.0955 87.6845 17.7622ZM95.34 19.5245V28.377H89.6843V7.39334H95.1351V15.6311H95.299C95.6542 14.627 96.2451 13.8448 97.0716 13.2847C97.8981 12.7178 98.8919 12.4343 100.053 12.4343C101.167 12.4343 102.133 12.6871 102.953 13.1925C103.779 13.698 104.418 14.3947 104.869 15.2827C105.326 16.1707 105.552 17.1884 105.545 18.336V28.377H99.8892V19.5245C99.896 18.7458 99.7014 18.1345 99.3052 17.6905C98.9158 17.2465 98.3591 17.0245 97.6351 17.0245C97.1774 17.0245 96.7744 17.127 96.4261 17.3319C96.0845 17.53 95.8182 17.8168 95.6269 18.1925C95.4425 18.5614 95.3468 19.0054 95.34 19.5245ZM132.439 15.2622H126.66C126.619 14.7841 126.51 14.3503 126.332 13.961C126.162 13.5716 125.923 13.2369 125.615 12.9569C125.315 12.67 124.949 12.4514 124.519 12.3011C124.089 12.144 123.6 12.0655 123.054 12.0655C122.097 12.0655 121.288 12.2977 120.625 12.7622C119.97 13.2267 119.471 13.8927 119.13 14.7601C118.795 15.6276 118.628 16.6693 118.628 17.8851C118.628 19.1693 118.798 20.2451 119.14 21.1126C119.488 21.9733 119.99 22.6222 120.646 23.0593C121.302 23.4897 122.091 23.7048 123.013 23.7048C123.539 23.7048 124.01 23.6399 124.427 23.5101C124.843 23.3735 125.205 23.1789 125.513 22.9261C125.82 22.6734 126.069 22.3694 126.261 22.0142C126.459 21.6522 126.592 21.2458 126.66 20.795L132.439 20.836C132.371 21.7239 132.121 22.629 131.691 23.5511C131.261 24.4664 130.649 25.3134 129.857 26.0921C129.071 26.864 128.098 27.4856 126.937 27.9569C125.776 28.4282 124.427 28.6638 122.89 28.6638C120.964 28.6638 119.235 28.2506 117.705 27.4241C116.182 26.5976 114.977 25.3817 114.089 23.7765C113.207 22.1714 112.767 20.2076 112.767 17.8851C112.767 15.5491 113.218 13.5819 114.119 11.9835C115.021 10.3783 116.237 9.16589 117.767 8.34621C119.297 7.51971 121.005 7.10646 122.89 7.10646C124.215 7.10646 125.434 7.28747 126.548 7.64949C127.661 8.01151 128.638 8.54089 129.478 9.23761C130.318 9.9275 130.994 10.7779 131.507 11.7888C132.019 12.7998 132.33 13.9576 132.439 15.2622ZM142.11 28.6638C140.403 28.6638 138.941 28.3257 137.725 27.6495C136.509 26.9664 135.577 26.017 134.928 24.8011C134.279 23.5785 133.955 22.1611 133.955 20.5491C133.955 18.9371 134.279 17.5231 134.928 16.3073C135.577 15.0846 136.509 14.1351 137.725 13.4589C138.941 12.7759 140.403 12.4343 142.11 12.4343C143.818 12.4343 145.28 12.7759 146.496 13.4589C147.711 14.1351 148.644 15.0846 149.293 16.3073C149.942 17.5231 150.266 18.9371 150.266 20.5491C150.266 22.1611 149.942 23.5785 149.293 24.8011C148.644 26.017 147.711 26.9664 146.496 27.6495C145.28 28.3257 143.818 28.6638 142.11 28.6638ZM142.151 24.4835C142.63 24.4835 143.043 24.323 143.391 24.002C143.74 23.6809 144.009 23.2233 144.201 22.629C144.392 22.0347 144.487 21.3278 144.487 20.5081C144.487 19.6816 144.392 18.9746 144.201 18.3872C144.009 17.7929 143.74 17.3353 143.391 17.0142C143.043 16.6932 142.63 16.5327 142.151 16.5327C141.646 16.5327 141.212 16.6932 140.85 17.0142C140.488 17.3353 140.211 17.7929 140.02 18.3872C139.829 18.9746 139.733 19.6816 139.733 20.5081C139.733 21.3278 139.829 22.0347 140.02 22.629C140.211 23.2233 140.488 23.6809 140.85 24.002C141.212 24.323 141.646 24.4835 142.151 24.4835ZM157.681 28.5819C156.561 28.5819 155.529 28.2882 154.587 27.7007C153.651 27.1133 152.899 26.2219 152.333 25.0265C151.772 23.8312 151.492 22.325 151.492 20.5081C151.492 18.6092 151.786 17.0655 152.374 15.877C152.968 14.6884 153.733 13.8175 154.669 13.2642C155.611 12.711 156.602 12.4343 157.64 12.4343C158.419 12.4343 159.102 12.5709 159.689 12.8442C160.277 13.1106 160.768 13.4692 161.164 13.92C161.561 14.364 161.861 14.8524 162.066 15.3851H162.148V7.39334H167.804V28.377H162.189V25.795H162.066C161.848 26.3278 161.533 26.8059 161.124 27.2294C160.721 27.6461 160.229 27.9774 159.648 28.2233C159.074 28.4623 158.419 28.5819 157.681 28.5819ZM159.771 24.2376C160.29 24.2376 160.734 24.0873 161.103 23.7868C161.479 23.4794 161.766 23.0491 161.964 22.4958C162.169 21.9357 162.271 21.2731 162.271 20.5081C162.271 19.7294 162.169 19.0634 161.964 18.5101C161.766 17.95 161.479 17.5231 161.103 17.2294C160.734 16.9289 160.29 16.7786 159.771 16.7786C159.252 16.7786 158.808 16.9289 158.439 17.2294C158.077 17.5231 157.797 17.95 157.599 18.5101C157.408 19.0634 157.312 19.7294 157.312 20.5081C157.312 21.2868 157.408 21.9562 157.599 22.5163C157.797 23.0696 158.077 23.4965 158.439 23.797C158.808 24.0908 159.252 24.2376 159.771 24.2376ZM177.544 28.6638C175.864 28.6638 174.416 28.3428 173.2 27.7007C171.991 27.0518 171.059 26.1229 170.403 24.9138C169.754 23.698 169.43 22.2431 169.43 20.5491C169.43 18.9234 169.758 17.5026 170.413 16.2868C171.069 15.0709 171.995 14.1249 173.19 13.4487C174.385 12.7724 175.796 12.4343 177.421 12.4343C178.61 12.4343 179.686 12.6188 180.649 12.9876C181.612 13.3565 182.435 13.8927 183.118 14.5962C183.801 15.2929 184.327 16.1399 184.696 17.1372C185.065 18.1345 185.249 19.2581 185.249 20.5081V21.8196H171.192V18.7048H180.044C180.038 18.254 179.921 17.8578 179.696 17.5163C179.477 17.1679 179.18 16.8981 178.805 16.7069C178.436 16.5088 178.016 16.4097 177.544 16.4097C177.087 16.4097 176.667 16.5088 176.284 16.7069C175.902 16.8981 175.594 17.1645 175.362 17.5061C175.137 17.8476 175.017 18.2472 175.003 18.7048V22.0655C175.003 22.5709 175.109 23.0218 175.321 23.4179C175.533 23.8141 175.837 24.1249 176.233 24.3503C176.629 24.5757 177.107 24.6884 177.667 24.6884C178.057 24.6884 178.412 24.6338 178.733 24.5245C179.061 24.4152 179.341 24.2581 179.573 24.0532C179.805 23.8414 179.976 23.5887 180.085 23.295H185.249C185.072 24.3879 184.652 25.3373 183.989 26.1433C183.327 26.9425 182.449 27.5641 181.356 28.0081C180.27 28.4453 178.999 28.6638 177.544 28.6638ZM201.365 17.7622H196.161C196.133 17.4412 196.02 17.1645 195.822 16.9323C195.624 16.7 195.368 16.5224 195.054 16.3995C194.747 16.2697 194.405 16.2048 194.029 16.2048C193.544 16.2048 193.128 16.2936 192.779 16.4712C192.431 16.6488 192.26 16.9015 192.267 17.2294C192.26 17.4617 192.359 17.6768 192.564 17.8749C192.776 18.073 193.182 18.2267 193.783 18.336L196.98 18.9097C198.592 19.2035 199.791 19.6987 200.577 20.3954C201.369 21.0853 201.768 22.0108 201.775 23.172C201.768 24.2923 201.434 25.2656 200.771 26.0921C200.115 26.9118 199.217 27.547 198.077 27.9979C196.943 28.4418 195.648 28.6638 194.193 28.6638C191.789 28.6638 189.907 28.172 188.548 27.1884C187.195 26.2048 186.441 24.907 186.283 23.295H191.898C191.973 23.7936 192.219 24.1795 192.636 24.4528C193.059 24.7192 193.592 24.8524 194.234 24.8524C194.753 24.8524 195.18 24.7636 195.515 24.586C195.857 24.4084 196.031 24.1556 196.038 23.8278C196.031 23.5272 195.88 23.2882 195.587 23.1106C195.3 22.933 194.849 22.7895 194.234 22.6802L191.447 22.1884C189.842 21.9084 188.64 21.3756 187.841 20.5901C187.042 19.8045 186.645 18.7936 186.652 17.5573C186.645 16.4644 186.932 15.5388 187.513 14.7806C188.1 14.0156 188.937 13.435 190.023 13.0388C191.116 12.6358 192.411 12.4343 193.906 12.4343C196.181 12.4343 197.974 12.9056 199.286 13.8483C200.604 14.7909 201.297 16.0955 201.365 17.7622Z" fill="white"/>
</svg>
