<svg width="203" height="35" viewBox="0 0 203 35" fill="none" xmlns="http://www.w3.org/2000/svg">
<path d="M13.1561 13.5738C13.1014 12.8907 12.8453 12.3579 12.3876 11.9754C11.9368 11.5929 11.2504 11.4016 10.3282 11.4016C9.74079 11.4016 9.25923 11.4734 8.88355 11.6168C8.5147 11.7534 8.24147 11.9413 8.06388 12.1803C7.88628 12.4194 7.79407 12.6926 7.78724 13C7.77358 13.2527 7.81798 13.4816 7.92044 13.6865C8.02973 13.8846 8.20049 14.0656 8.43273 14.2295C8.66497 14.3866 8.9621 14.5301 9.32413 14.6598C9.68615 14.7896 10.1165 14.9057 10.6151 15.0082L12.3364 15.377C13.4976 15.6229 14.4915 15.9474 15.318 16.3504C16.1445 16.7534 16.8207 17.2281 17.3467 17.7746C17.8726 18.3142 18.2586 18.9221 18.5045 19.5984C18.7572 20.2746 18.887 21.0123 18.8938 21.8115C18.887 23.1913 18.542 24.3593 17.859 25.3156C17.1759 26.2719 16.1991 26.9993 14.9286 27.498C13.665 27.9966 12.1452 28.2459 10.3692 28.2459C8.54544 28.2459 6.95391 27.9761 5.59462 27.4365C4.24216 26.8969 3.19024 26.0669 2.43888 24.9467C1.69434 23.8197 1.31866 22.3784 1.31183 20.623H6.72167C6.75582 21.265 6.91634 21.8046 7.20322 22.2418C7.49011 22.679 7.89311 23.0102 8.41224 23.2357C8.9382 23.4611 9.5632 23.5738 10.2872 23.5738C10.8952 23.5738 11.404 23.4986 11.8139 23.3484C12.2237 23.1981 12.5345 22.9898 12.7463 22.7234C12.958 22.457 13.0673 22.153 13.0741 21.8115C13.0673 21.4904 12.9614 21.2104 12.7565 20.9713C12.5584 20.7254 12.2305 20.5068 11.7729 20.3156C11.3152 20.1175 10.6971 19.9331 9.91839 19.7623L7.82822 19.3115C5.9703 18.9085 4.50514 18.2357 3.43273 17.293C2.36716 16.3436 1.83779 15.0492 1.84462 13.4098C1.83779 12.0779 2.19298 10.9132 2.91019 9.91598C3.63423 8.91188 4.63492 8.12978 5.91224 7.56967C7.19639 7.00956 8.66839 6.72951 10.3282 6.72951C12.0222 6.72951 13.4874 7.01298 14.7237 7.57992C15.9601 8.14686 16.9129 8.94604 17.5823 9.97746C18.2586 11.002 18.6001 12.2008 18.6069 13.5738H13.1561ZM30.7297 33.9016V25.418H30.6477C30.4291 25.9508 30.1149 26.429 29.7051 26.8525C29.3021 27.2691 28.8103 27.6004 28.2297 27.8463C27.6559 28.0854 27.0002 28.2049 26.2624 28.2049C25.1422 28.2049 24.1108 27.9112 23.1682 27.3238C22.2324 26.7363 21.481 25.8449 20.9141 24.6496C20.354 23.4542 20.0739 21.9481 20.0739 20.1311C20.0739 18.2322 20.3676 16.6885 20.9551 15.5C21.5493 14.3115 22.3144 13.4406 23.2502 12.8873C24.1928 12.334 25.1832 12.0574 26.2215 12.0574C27.0002 12.0574 27.6832 12.194 28.2706 12.4672C28.8581 12.7336 29.3499 13.0922 29.7461 13.543C30.1422 13.987 30.4428 14.4754 30.6477 15.0082H30.7706V12.2623H36.3854V33.9016H30.7297ZM28.3526 23.8607C28.8717 23.8607 29.3157 23.7104 29.6846 23.4098C30.0603 23.1025 30.3471 22.6721 30.5452 22.1189C30.7502 21.5587 30.8526 20.8962 30.8526 20.1311C30.8526 19.3525 30.7502 18.6865 30.5452 18.1332C30.3471 17.5731 30.0603 17.1462 29.6846 16.8525C29.3157 16.5519 28.8717 16.4016 28.3526 16.4016C27.8335 16.4016 27.3895 16.5519 27.0206 16.8525C26.6586 17.1462 26.3786 17.5731 26.1805 18.1332C25.9892 18.6865 25.8936 19.3525 25.8936 20.1311C25.8936 20.9098 25.9892 21.5792 26.1805 22.1393C26.3786 22.6926 26.6586 23.1195 27.0206 23.4201C27.3895 23.7138 27.8335 23.8607 28.3526 23.8607ZM48.8744 21.1148V12.2623H54.5302V28H49.1613V25.0082H48.9974C48.6559 26.0123 48.0582 26.7978 47.2044 27.3648C46.3505 27.9249 45.3362 28.2049 44.1613 28.2049C43.0616 28.2049 42.0985 27.9522 41.272 27.4467C40.4523 26.9413 39.8136 26.2445 39.356 25.3566C38.9052 24.4686 38.6763 23.4508 38.6695 22.3033V12.2623H44.3253V21.1148C44.3321 21.8934 44.5302 22.5048 44.9195 22.9488C45.3157 23.3928 45.869 23.6148 46.5794 23.6148C47.0507 23.6148 47.4571 23.5157 47.7986 23.3176C48.147 23.1127 48.4134 22.8258 48.5978 22.457C48.7891 22.0813 48.8813 21.6339 48.8744 21.1148ZM61.2149 28.2459C60.2108 28.2459 59.3228 28.082 58.551 27.7541C57.7859 27.4194 57.1849 26.9139 56.7477 26.2377C56.3105 25.5615 56.092 24.7008 56.092 23.6557C56.092 22.7951 56.2388 22.0608 56.5325 21.4529C56.8262 20.8381 57.2361 20.3361 57.762 19.9467C58.288 19.5574 58.8993 19.2602 59.5961 19.0553C60.2996 18.8504 61.0578 18.7172 61.8706 18.6557C62.7518 18.5874 63.4588 18.5055 63.9915 18.4098C64.5312 18.3074 64.9205 18.1673 65.1596 17.9898C65.3987 17.8053 65.5182 17.5628 65.5182 17.2623V17.2213C65.5182 16.8115 65.3611 16.4973 65.0469 16.2787C64.7327 16.0601 64.3297 15.9508 63.8379 15.9508C63.2982 15.9508 62.8577 16.0704 62.5161 16.3094C62.1814 16.5417 61.9799 16.9003 61.9116 17.3852H56.7067C56.775 16.429 57.079 15.5478 57.6186 14.7418C58.165 13.929 58.9608 13.2801 60.0059 12.7951C61.051 12.3033 62.3556 12.0574 63.9198 12.0574C65.0469 12.0574 66.0578 12.1906 66.9526 12.457C67.8474 12.7165 68.609 13.082 69.2375 13.5533C69.8659 14.0178 70.344 14.5642 70.6719 15.1926C71.0066 15.8142 71.1739 16.4904 71.1739 17.2213V28H65.887V25.7869H65.7641C65.4499 26.3743 65.0674 26.849 64.6165 27.2111C64.1726 27.5731 63.6637 27.8361 63.0899 28C62.523 28.1639 61.898 28.2459 61.2149 28.2459ZM63.0592 24.6803C63.4895 24.6803 63.8925 24.5915 64.2682 24.4139C64.6507 24.2363 64.9615 23.9802 65.2006 23.6455C65.4396 23.3108 65.5592 22.9044 65.5592 22.4262V21.1148C65.4089 21.1762 65.2484 21.2343 65.0776 21.2889C64.9137 21.3436 64.7361 21.3948 64.5448 21.4426C64.3604 21.4904 64.1623 21.5348 63.9506 21.5758C63.7456 21.6168 63.5305 21.6544 63.3051 21.6885C62.8679 21.7568 62.5093 21.8695 62.2293 22.0266C61.956 22.1769 61.7511 22.3648 61.6145 22.5902C61.4847 22.8087 61.4198 23.0546 61.4198 23.3279C61.4198 23.765 61.5735 24.0997 61.8809 24.332C62.1883 24.5642 62.581 24.6803 63.0592 24.6803ZM87.6845 17.3852H82.4796C82.4522 17.0642 82.3395 16.7876 82.1414 16.5553C81.9434 16.3231 81.6872 16.1455 81.373 16.0225C81.0656 15.8928 80.7241 15.8279 80.3484 15.8279C79.8634 15.8279 79.4468 15.9167 79.0984 16.0943C78.7501 16.2719 78.5793 16.5246 78.5861 16.8525C78.5793 17.0847 78.6783 17.2999 78.8833 17.4979C79.095 17.696 79.5014 17.8497 80.1025 17.959L83.2992 18.5328C84.9113 18.8265 86.11 19.3217 86.8955 20.0184C87.6879 20.7083 88.0875 21.6339 88.0943 22.7951C88.0875 23.9153 87.7528 24.8887 87.0902 25.7152C86.4345 26.5348 85.5363 27.1701 84.3955 27.6209C83.2617 28.0649 81.9673 28.2869 80.5123 28.2869C78.108 28.2869 76.2261 27.7951 74.8669 26.8115C73.5144 25.8279 72.7596 24.5301 72.6025 22.918H78.2173C78.2924 23.4167 78.5383 23.8026 78.955 24.0758C79.3785 24.3422 79.9113 24.4754 80.5533 24.4754C81.0725 24.4754 81.4994 24.3866 81.8341 24.209C82.1756 24.0314 82.3498 23.7787 82.3566 23.4508C82.3498 23.1503 82.1995 22.9112 81.9058 22.7336C81.6189 22.556 81.1681 22.4126 80.5533 22.3033L77.7664 21.8115C76.1613 21.5314 74.9591 20.9986 74.1599 20.2131C73.3607 19.4276 72.9645 18.4167 72.9714 17.1803C72.9645 16.0874 73.2514 15.1619 73.832 14.4037C74.4195 13.6387 75.2562 13.0581 76.3423 12.6619C77.4352 12.2589 78.7296 12.0574 80.2255 12.0574C82.5001 12.0574 84.2931 12.5287 85.6046 13.4713C86.9229 14.4139 87.6162 15.7186 87.6845 17.3852ZM95.34 19.1475V28H89.6843V7.01639H95.1351V15.2541H95.299C95.6542 14.25 96.2451 13.4679 97.0716 12.9078C97.8981 12.3408 98.8919 12.0574 100.053 12.0574C101.167 12.0574 102.133 12.3101 102.953 12.8156C103.779 13.321 104.418 14.0178 104.869 14.9057C105.326 15.7937 105.552 16.8115 105.545 17.959V28H99.8892V19.1475C99.896 18.3689 99.7014 17.7575 99.3052 17.3135C98.9158 16.8695 98.3591 16.6475 97.6351 16.6475C97.1774 16.6475 96.7744 16.75 96.4261 16.9549C96.0845 17.153 95.8182 17.4399 95.6269 17.8156C95.4425 18.1844 95.3468 18.6284 95.34 19.1475ZM132.439 14.8852H126.66C126.619 14.4071 126.51 13.9734 126.332 13.584C126.162 13.1947 125.923 12.86 125.615 12.5799C125.315 12.293 124.949 12.0745 124.519 11.9242C124.089 11.7671 123.6 11.6885 123.054 11.6885C122.097 11.6885 121.288 11.9208 120.625 12.3852C119.97 12.8497 119.471 13.5157 119.13 14.3832C118.795 15.2507 118.628 16.2923 118.628 17.5082C118.628 18.7923 118.798 19.8682 119.14 20.7357C119.488 21.5963 119.99 22.2452 120.646 22.6824C121.302 23.1127 122.091 23.3279 123.013 23.3279C123.539 23.3279 124.01 23.263 124.427 23.1332C124.843 22.9966 125.205 22.8019 125.513 22.5492C125.82 22.2964 126.069 21.9925 126.261 21.6373C126.459 21.2753 126.592 20.8689 126.66 20.418L132.439 20.459C132.371 21.347 132.121 22.252 131.691 23.1742C131.261 24.0895 130.649 24.9365 129.857 25.7152C129.071 26.487 128.098 27.1086 126.937 27.5799C125.776 28.0512 124.427 28.2869 122.89 28.2869C120.964 28.2869 119.235 27.8736 117.705 27.0471C116.182 26.2206 114.977 25.0048 114.089 23.3996C113.207 21.7944 112.767 19.8306 112.767 17.5082C112.767 15.1721 113.218 13.2049 114.119 11.6066C115.021 10.0014 116.237 8.78893 117.767 7.96926C119.297 7.14276 121.005 6.72951 122.89 6.72951C124.215 6.72951 125.434 6.91052 126.548 7.27254C127.661 7.63456 128.638 8.16393 129.478 8.86065C130.318 9.55054 130.994 10.401 131.507 11.4119C132.019 12.4228 132.33 13.5806 132.439 14.8852ZM142.11 28.2869C140.403 28.2869 138.941 27.9488 137.725 27.2725C136.509 26.5895 135.577 25.64 134.928 24.4242C134.279 23.2015 133.955 21.7842 133.955 20.1721C133.955 18.5601 134.279 17.1462 134.928 15.9303C135.577 14.7076 136.509 13.7582 137.725 13.082C138.941 12.3989 140.403 12.0574 142.11 12.0574C143.818 12.0574 145.28 12.3989 146.496 13.082C147.711 13.7582 148.644 14.7076 149.293 15.9303C149.942 17.1462 150.266 18.5601 150.266 20.1721C150.266 21.7842 149.942 23.2015 149.293 24.4242C148.644 25.64 147.711 26.5895 146.496 27.2725C145.28 27.9488 143.818 28.2869 142.11 28.2869ZM142.151 24.1066C142.63 24.1066 143.043 23.946 143.391 23.625C143.74 23.304 144.009 22.8463 144.201 22.252C144.392 21.6578 144.487 20.9508 144.487 20.1311C144.487 19.3046 144.392 18.5977 144.201 18.0102C144.009 17.416 143.74 16.9583 143.391 16.6373C143.043 16.3163 142.63 16.1557 142.151 16.1557C141.646 16.1557 141.212 16.3163 140.85 16.6373C140.488 16.9583 140.211 17.416 140.02 18.0102C139.829 18.5977 139.733 19.3046 139.733 20.1311C139.733 20.9508 139.829 21.6578 140.02 22.252C140.211 22.8463 140.488 23.304 140.85 23.625C141.212 23.946 141.646 24.1066 142.151 24.1066ZM157.681 28.2049C156.561 28.2049 155.529 27.9112 154.587 27.3238C153.651 26.7363 152.899 25.8449 152.333 24.6496C151.772 23.4542 151.492 21.9481 151.492 20.1311C151.492 18.2322 151.786 16.6885 152.374 15.5C152.968 14.3115 153.733 13.4406 154.669 12.8873C155.611 12.334 156.602 12.0574 157.64 12.0574C158.419 12.0574 159.102 12.194 159.689 12.4672C160.277 12.7336 160.768 13.0922 161.164 13.543C161.561 13.987 161.861 14.4754 162.066 15.0082H162.148V7.01639H167.804V28H162.189V25.418H162.066C161.848 25.9508 161.533 26.429 161.124 26.8525C160.721 27.2691 160.229 27.6004 159.648 27.8463C159.074 28.0854 158.419 28.2049 157.681 28.2049ZM159.771 23.8607C160.29 23.8607 160.734 23.7104 161.103 23.4098C161.479 23.1025 161.766 22.6721 161.964 22.1189C162.169 21.5587 162.271 20.8962 162.271 20.1311C162.271 19.3525 162.169 18.6865 161.964 18.1332C161.766 17.5731 161.479 17.1462 161.103 16.8525C160.734 16.5519 160.29 16.4016 159.771 16.4016C159.252 16.4016 158.808 16.5519 158.439 16.8525C158.077 17.1462 157.797 17.5731 157.599 18.1332C157.408 18.6865 157.312 19.3525 157.312 20.1311C157.312 20.9098 157.408 21.5792 157.599 22.1393C157.797 22.6926 158.077 23.1195 158.439 23.4201C158.808 23.7138 159.252 23.8607 159.771 23.8607ZM177.544 28.2869C175.864 28.2869 174.416 27.9658 173.2 27.3238C171.991 26.6749 171.059 25.7459 170.403 24.5369C169.754 23.321 169.43 21.8661 169.43 20.1721C169.43 18.5464 169.758 17.1257 170.413 15.9098C171.069 14.694 171.995 13.7479 173.19 13.0717C174.385 12.3955 175.796 12.0574 177.421 12.0574C178.61 12.0574 179.686 12.2418 180.649 12.6107C181.612 12.9795 182.435 13.5157 183.118 14.2193C183.801 14.916 184.327 15.763 184.696 16.7602C185.065 17.7575 185.249 18.8811 185.249 20.1311V21.4426H171.192V18.3279H180.044C180.038 17.877 179.921 17.4809 179.696 17.1393C179.477 16.791 179.18 16.5212 178.805 16.3299C178.436 16.1318 178.016 16.0328 177.544 16.0328C177.087 16.0328 176.667 16.1318 176.284 16.3299C175.902 16.5212 175.594 16.7876 175.362 17.1291C175.137 17.4706 175.017 17.8702 175.003 18.3279V21.6885C175.003 22.194 175.109 22.6448 175.321 23.041C175.533 23.4372 175.837 23.748 176.233 23.9734C176.629 24.1988 177.107 24.3115 177.667 24.3115C178.057 24.3115 178.412 24.2568 178.733 24.1475C179.061 24.0383 179.341 23.8811 179.573 23.6762C179.805 23.4645 179.976 23.2117 180.085 22.918H185.249C185.072 24.0109 184.652 24.9604 183.989 25.7664C183.327 26.5656 182.449 27.1872 181.356 27.6311C180.27 28.0683 178.999 28.2869 177.544 28.2869ZM201.365 17.3852H196.161C196.133 17.0642 196.02 16.7876 195.822 16.5553C195.624 16.3231 195.368 16.1455 195.054 16.0225C194.747 15.8928 194.405 15.8279 194.029 15.8279C193.544 15.8279 193.128 15.9167 192.779 16.0943C192.431 16.2719 192.26 16.5246 192.267 16.8525C192.26 17.0847 192.359 17.2999 192.564 17.4979C192.776 17.696 193.182 17.8497 193.783 17.959L196.98 18.5328C198.592 18.8265 199.791 19.3217 200.577 20.0184C201.369 20.7083 201.768 21.6339 201.775 22.7951C201.768 23.9153 201.434 24.8887 200.771 25.7152C200.115 26.5348 199.217 27.1701 198.077 27.6209C196.943 28.0649 195.648 28.2869 194.193 28.2869C191.789 28.2869 189.907 27.7951 188.548 26.8115C187.195 25.8279 186.441 24.5301 186.283 22.918H191.898C191.973 23.4167 192.219 23.8026 192.636 24.0758C193.059 24.3422 193.592 24.4754 194.234 24.4754C194.753 24.4754 195.18 24.3866 195.515 24.209C195.857 24.0314 196.031 23.7787 196.038 23.4508C196.031 23.1503 195.88 22.9112 195.587 22.7336C195.3 22.556 194.849 22.4126 194.234 22.3033L191.447 21.8115C189.842 21.5314 188.64 20.9986 187.841 20.2131C187.042 19.4276 186.645 18.4167 186.652 17.1803C186.645 16.0874 186.932 15.1619 187.513 14.4037C188.1 13.6387 188.937 13.0581 190.023 12.6619C191.116 12.2589 192.411 12.0574 193.906 12.0574C196.181 12.0574 197.974 12.5287 199.286 13.4713C200.604 14.4139 201.297 15.7186 201.365 17.3852Z" fill="#14002D"/>
</svg>
